<mxfile host="app.diagrams.net" modified="2023-04-15T12:31:55.334Z" agent="Mozilla/5.0 (Windows NT 10.0; Win64; x64) AppleWebKit/537.36 (KHTML, like Gecko) Chrome/112.0.0.0 Safari/537.36 Edg/112.0.1722.46" etag="HSmfqQ37wpBkw963xD4A" version="21.1.8" type="github">
  <diagram name="第 1 页" id="BFmFJj9jeWmkGfo1fLZ5">
    <mxGraphModel dx="1050" dy="1750" grid="1" gridSize="10" guides="1" tooltips="1" connect="0" arrows="1" fold="1" page="1" pageScale="1" pageWidth="827" pageHeight="1169" math="0" shadow="0">
      <root>
        <mxCell id="0" />
        <mxCell id="1" parent="0" />
        <mxCell id="8wWSu8ZdaB7HkUTqcT03-6" value="" style="verticalLabelPosition=bottom;verticalAlign=top;html=1;shape=mxgraph.basic.patternFillRect;fillStyle=diag;step=5;fillStrokeWidth=0.2;fillStrokeColor=#dddddd;fillColor=#d5e8d4;strokeColor=#82b366;" vertex="1" parent="1">
          <mxGeometry x="170" y="380" width="540" height="80" as="geometry" />
        </mxCell>
        <mxCell id="8wWSu8ZdaB7HkUTqcT03-1" value="&lt;h1&gt;区块链系统架构&lt;/h1&gt;" style="text;strokeColor=none;align=center;fillColor=none;html=1;verticalAlign=middle;whiteSpace=wrap;rounded=0;" vertex="1" parent="1">
          <mxGeometry x="290" y="-170" width="190" height="30" as="geometry" />
        </mxCell>
        <mxCell id="8wWSu8ZdaB7HkUTqcT03-2" value="资源层" style="whiteSpace=wrap;html=1;aspect=fixed;fillColor=#fff2cc;strokeColor=#d6b656;" vertex="1" parent="1">
          <mxGeometry x="70" y="380" width="80" height="80" as="geometry" />
        </mxCell>
        <mxCell id="8wWSu8ZdaB7HkUTqcT03-3" value="&lt;h2&gt;公有云&lt;/h2&gt;" style="rounded=0;whiteSpace=wrap;html=1;fillColor=#dae8fc;strokeColor=#6c8ebf;" vertex="1" parent="1">
          <mxGeometry x="210" y="405" width="120" height="30" as="geometry" />
        </mxCell>
        <mxCell id="8wWSu8ZdaB7HkUTqcT03-5" value="&lt;h2&gt;虚拟机&lt;/h2&gt;" style="rounded=0;whiteSpace=wrap;html=1;fillColor=#dae8fc;strokeColor=#6c8ebf;" vertex="1" parent="1">
          <mxGeometry x="510" y="405" width="120" height="30" as="geometry" />
        </mxCell>
        <mxCell id="8wWSu8ZdaB7HkUTqcT03-7" value="私有云" style="rounded=0;whiteSpace=wrap;html=1;" vertex="1" parent="1">
          <mxGeometry x="345" y="405" width="120" height="30" as="geometry" />
        </mxCell>
        <mxCell id="8wWSu8ZdaB7HkUTqcT03-8" value="框架系统" style="whiteSpace=wrap;html=1;aspect=fixed;fillColor=#fff2cc;strokeColor=#d6b656;" vertex="1" parent="1">
          <mxGeometry x="70" y="280" width="80" height="80" as="geometry" />
        </mxCell>
        <mxCell id="8wWSu8ZdaB7HkUTqcT03-9" value="" style="verticalLabelPosition=bottom;verticalAlign=top;html=1;shape=mxgraph.basic.patternFillRect;fillStyle=diag;step=5;fillStrokeWidth=0.2;fillStrokeColor=#dddddd;fillColor=#d5e8d4;strokeColor=#82b366;" vertex="1" parent="1">
          <mxGeometry x="170" y="280" width="540" height="80" as="geometry" />
        </mxCell>
        <mxCell id="8wWSu8ZdaB7HkUTqcT03-10" value="&lt;h2&gt;私有云&lt;/h2&gt;" style="rounded=0;whiteSpace=wrap;html=1;fillColor=#dae8fc;strokeColor=#6c8ebf;" vertex="1" parent="1">
          <mxGeometry x="345" y="405" width="120" height="30" as="geometry" />
        </mxCell>
        <mxCell id="8wWSu8ZdaB7HkUTqcT03-11" value="&lt;h2&gt;FISCO BCOS&lt;/h2&gt;" style="rounded=0;whiteSpace=wrap;html=1;fillColor=#dae8fc;strokeColor=#6c8ebf;" vertex="1" parent="1">
          <mxGeometry x="210" y="305" width="180" height="30" as="geometry" />
        </mxCell>
        <mxCell id="8wWSu8ZdaB7HkUTqcT03-12" value="共识层" style="whiteSpace=wrap;html=1;aspect=fixed;fillColor=#fff2cc;strokeColor=#d6b656;" vertex="1" parent="1">
          <mxGeometry x="70" y="180" width="80" height="80" as="geometry" />
        </mxCell>
        <mxCell id="8wWSu8ZdaB7HkUTqcT03-13" value="" style="verticalLabelPosition=bottom;verticalAlign=top;html=1;shape=mxgraph.basic.patternFillRect;fillStyle=diag;step=5;fillStrokeWidth=0.2;fillStrokeColor=#dddddd;fillColor=#d5e8d4;strokeColor=#82b366;" vertex="1" parent="1">
          <mxGeometry x="170" y="180" width="540" height="80" as="geometry" />
        </mxCell>
        <mxCell id="8wWSu8ZdaB7HkUTqcT03-14" value="&lt;h2&gt;raft&lt;/h2&gt;" style="rounded=0;whiteSpace=wrap;html=1;fillColor=#dae8fc;strokeColor=#6c8ebf;" vertex="1" parent="1">
          <mxGeometry x="210" y="205" width="120" height="30" as="geometry" />
        </mxCell>
        <mxCell id="8wWSu8ZdaB7HkUTqcT03-15" value="&lt;h2&gt;pbft&lt;/h2&gt;" style="rounded=0;whiteSpace=wrap;html=1;fillColor=#dae8fc;strokeColor=#6c8ebf;" vertex="1" parent="1">
          <mxGeometry x="510" y="205" width="120" height="30" as="geometry" />
        </mxCell>
        <mxCell id="8wWSu8ZdaB7HkUTqcT03-16" value="合约层" style="whiteSpace=wrap;html=1;aspect=fixed;fillColor=#fff2cc;strokeColor=#d6b656;" vertex="1" parent="1">
          <mxGeometry x="70" y="80" width="80" height="80" as="geometry" />
        </mxCell>
        <mxCell id="8wWSu8ZdaB7HkUTqcT03-17" value="" style="verticalLabelPosition=bottom;verticalAlign=top;html=1;shape=mxgraph.basic.patternFillRect;fillStyle=diag;step=5;fillStrokeWidth=0.2;fillStrokeColor=#dddddd;fillColor=#d5e8d4;strokeColor=#82b366;" vertex="1" parent="1">
          <mxGeometry x="170" y="80" width="540" height="80" as="geometry" />
        </mxCell>
        <mxCell id="8wWSu8ZdaB7HkUTqcT03-19" value="&lt;h2&gt;医疗档案&lt;/h2&gt;" style="rounded=0;whiteSpace=wrap;html=1;fillColor=#dae8fc;strokeColor=#6c8ebf;" vertex="1" parent="1">
          <mxGeometry x="210" y="105" width="120" height="30" as="geometry" />
        </mxCell>
        <mxCell id="8wWSu8ZdaB7HkUTqcT03-20" value="&lt;h2&gt;医院管理&lt;/h2&gt;" style="rounded=0;whiteSpace=wrap;html=1;fillColor=#dae8fc;strokeColor=#6c8ebf;" vertex="1" parent="1">
          <mxGeometry x="354" y="105" width="120" height="30" as="geometry" />
        </mxCell>
        <mxCell id="8wWSu8ZdaB7HkUTqcT03-21" value="&lt;h2&gt;矿工管理&lt;/h2&gt;" style="rounded=0;whiteSpace=wrap;html=1;fillColor=#dae8fc;strokeColor=#6c8ebf;" vertex="1" parent="1">
          <mxGeometry x="510" y="105" width="120" height="30" as="geometry" />
        </mxCell>
        <mxCell id="8wWSu8ZdaB7HkUTqcT03-22" value="&lt;h2&gt;Webase&lt;/h2&gt;" style="rounded=0;whiteSpace=wrap;html=1;fillColor=#dae8fc;strokeColor=#6c8ebf;" vertex="1" parent="1">
          <mxGeometry x="450" y="305" width="180" height="30" as="geometry" />
        </mxCell>
        <mxCell id="8wWSu8ZdaB7HkUTqcT03-24" value="SDK" style="whiteSpace=wrap;html=1;aspect=fixed;fillColor=#fff2cc;strokeColor=#d6b656;" vertex="1" parent="1">
          <mxGeometry x="70" y="-20" width="80" height="80" as="geometry" />
        </mxCell>
        <mxCell id="8wWSu8ZdaB7HkUTqcT03-25" value="" style="verticalLabelPosition=bottom;verticalAlign=top;html=1;shape=mxgraph.basic.patternFillRect;fillStyle=diag;step=5;fillStrokeWidth=0.2;fillStrokeColor=#dddddd;fillColor=#d5e8d4;strokeColor=#82b366;" vertex="1" parent="1">
          <mxGeometry x="170" y="-20" width="540" height="80" as="geometry" />
        </mxCell>
        <mxCell id="8wWSu8ZdaB7HkUTqcT03-26" value="&lt;h2&gt;Java SDK&lt;/h2&gt;" style="rounded=0;whiteSpace=wrap;html=1;fillColor=#dae8fc;strokeColor=#6c8ebf;" vertex="1" parent="1">
          <mxGeometry x="280" y="5" width="245" height="30" as="geometry" />
        </mxCell>
        <mxCell id="8wWSu8ZdaB7HkUTqcT03-28" value="&lt;p&gt;服务层&lt;/p&gt;" style="whiteSpace=wrap;html=1;aspect=fixed;fillColor=#fff2cc;strokeColor=#d6b656;" vertex="1" parent="1">
          <mxGeometry x="70" y="-120" width="80" height="80" as="geometry" />
        </mxCell>
        <mxCell id="8wWSu8ZdaB7HkUTqcT03-29" value="" style="verticalLabelPosition=bottom;verticalAlign=top;html=1;shape=mxgraph.basic.patternFillRect;fillStyle=diag;step=5;fillStrokeWidth=0.2;fillStrokeColor=#dddddd;fillColor=#d5e8d4;strokeColor=#82b366;" vertex="1" parent="1">
          <mxGeometry x="170" y="-120" width="540" height="80" as="geometry" />
        </mxCell>
        <mxCell id="8wWSu8ZdaB7HkUTqcT03-30" value="&lt;h2&gt;数字身份&lt;/h2&gt;" style="rounded=0;whiteSpace=wrap;html=1;fillColor=#dae8fc;strokeColor=#6c8ebf;" vertex="1" parent="1">
          <mxGeometry x="342.5" y="-95" width="120" height="30" as="geometry" />
        </mxCell>
        <mxCell id="8wWSu8ZdaB7HkUTqcT03-31" value="&lt;h2&gt;委员投票&lt;/h2&gt;" style="rounded=0;whiteSpace=wrap;html=1;fillColor=#dae8fc;strokeColor=#6c8ebf;" vertex="1" parent="1">
          <mxGeometry x="490" y="-95" width="120" height="30" as="geometry" />
        </mxCell>
        <mxCell id="8wWSu8ZdaB7HkUTqcT03-32" value="&lt;h2&gt;医疗管理&lt;/h2&gt;" style="rounded=0;whiteSpace=wrap;html=1;fillColor=#dae8fc;strokeColor=#6c8ebf;" vertex="1" parent="1">
          <mxGeometry x="200" y="-95" width="120" height="30" as="geometry" />
        </mxCell>
      </root>
    </mxGraphModel>
  </diagram>
</mxfile>
